<svg width="195" height="315" viewBox="0 0 195 315" fill="none" xmlns="http://www.w3.org/2000/svg">
<path d="M13.7971 170.362L21.797 170.403L21.8278 164.403L13.8279 164.362L13.7971 170.362Z" fill="#313131"/>
<rect width="9" height="20" rx="2" transform="matrix(0.999987 0.00506467 0.00506467 -0.999987 4.81219 177.676)" fill="#313131"/>
<path d="M179.559 170.362L171.559 170.403L171.528 164.403L179.528 164.362L179.559 170.362Z" fill="#313131"/>
<rect x="188.543" y="177.676" width="9" height="20" rx="2" transform="rotate(179.71 188.543 177.676)" fill="#313131"/>
<path d="M11.7971 259.362L19.797 259.403L19.8278 253.403L11.8279 253.362L11.7971 259.362Z" fill="#313131"/>
<rect width="9" height="20" rx="2" transform="matrix(0.999987 0.00506467 0.00506467 -0.999987 2.81219 266.676)" fill="#313131"/>
<path d="M181.559 259.362L173.559 259.403L173.528 253.403L181.528 253.362L181.559 259.362Z" fill="#313131"/>
<rect x="190.543" y="266.676" width="9" height="20" rx="2" transform="rotate(179.71 190.543 266.676)" fill="#313131"/>
<path d="M9.79706 80.362L17.797 80.4031L17.8278 74.4032L9.82792 74.362L9.79706 80.362Z" fill="#313131"/>
<rect width="9" height="20" rx="2" transform="matrix(0.999987 0.00506467 0.00506467 -0.999987 0.812195 87.6757)" fill="#313131"/>
<path d="M184.559 80.362L176.559 80.4031L176.528 74.4032L184.528 74.362L184.559 80.362Z" fill="#313131"/>
<rect x="193.543" y="87.6757" width="9" height="20" rx="2" transform="rotate(179.71 193.543 87.6757)" fill="#313131"/>
<path fill-rule="evenodd" clip-rule="evenodd" d="M152 6.5C152 4.69629 150.666 3.10602 148.865 3.00372L96.0001 0L44.1531 2.97971C42.3411 3.08383 41.0001 4.685 41.0001 6.5C41.0001 22.5661 28.7814 35.8229 12.9925 37.7572C10.7997 38.0258 9.00006 39.7909 9.00006 42V52.2978C15.4804 72.8282 20.0001 119.148 20.0001 173C20.0001 226.852 15.4804 273.172 9.00006 293.702V301C9.00006 303.209 10.791 305 13.0001 305H180C182.209 305 184 303.209 184 301V292.054C177.788 270.765 173.5 225.456 173.5 173C173.5 120.544 177.788 75.2349 184 53.9462V42C184 39.7909 182.2 38.0258 180.008 37.7572C164.219 35.8229 152 22.5661 152 6.5Z" fill="#743E0C"/>
<g filter="url(#filter0_d)">
<path d="M57.6634 267.017L57.0762 305L55.0762 305L55.6637 266.983L57.6634 267.017Z" fill="#C9C9C9"/>
</g>
<g filter="url(#filter1_d)">
<path d="M72.0001 305L57.033 175.349L59.0057 175L74 305L72.0001 305Z" fill="#C9C9C9"/>
</g>
<g filter="url(#filter2_d)">
<path d="M121.049 305L136.016 175.349L134.043 175L119.049 305L121.049 305Z" fill="#C9C9C9"/>
</g>
<g filter="url(#filter3_d)">
<path d="M89.0001 305L55.0503 82.5056L56.9959 82L91 305L89.0001 305Z" fill="#C9C9C9"/>
</g>
<g filter="url(#filter4_d)">
<path d="M105.18 305L139.129 82.5056L137.184 82L103.18 305L105.18 305Z" fill="#C9C9C9"/>
</g>
<g filter="url(#filter5_d)">
<path d="M136.076 267.017L136.663 305L138.663 305L138.076 266.983L136.076 267.017Z" fill="#C9C9C9"/>
</g>
<circle cx="141.5" cy="76.5" r="12.5" fill="#C4C4C4"/>
<circle cx="141.5" cy="76.5" r="5.5" fill="white"/>
<circle cx="142.5" cy="77.5" r="5.5" fill="black" fill-opacity="0.2"/>
<circle cx="141.5" cy="166.5" r="12.5" fill="#C4C4C4"/>
<circle cx="141.5" cy="166.5" r="5.5" fill="white"/>
<circle cx="142.5" cy="167.5" r="5.5" fill="black" fill-opacity="0.2"/>
<circle cx="141.5" cy="256.5" r="12.5" fill="#C4C4C4"/>
<circle cx="141.5" cy="256.5" r="5.5" fill="white"/>
<circle cx="142.5" cy="257.5" r="5.5" fill="black" fill-opacity="0.2"/>
<circle cx="51.5001" cy="256.5" r="12.5" fill="#C4C4C4"/>
<circle cx="51.5001" cy="256.5" r="5.5" fill="white"/>
<circle cx="52.5001" cy="257.5" r="5.5" fill="black" fill-opacity="0.2"/>
<circle cx="51.5001" cy="166.5" r="12.5" fill="#C4C4C4"/>
<circle cx="51.5001" cy="166.5" r="5.5" fill="white"/>
<circle cx="52.5001" cy="167.5" r="5.5" fill="black" fill-opacity="0.2"/>
<circle cx="51.5001" cy="76.5" r="12.5" fill="#C4C4C4"/>
<circle cx="51.5001" cy="76.5" r="5.5" fill="white"/>
<circle cx="51.5001" cy="76.5" r="5.5" fill="white"/>
<circle cx="52.5001" cy="77.5" r="5.5" fill="black" fill-opacity="0.2"/>
<path d="M9.00006 302L53.5001 305L97.0001 304.5L140 305L184 302V315H9.00006V302Z" fill="black"/>
<g filter="url(#filter6_d)">
<path d="M75.6446 39.7397C75.46 40.1001 75.2447 40.4429 74.9986 40.7681C74.7613 41.0845 74.5108 41.3789 74.2471 41.6514C73.9835 41.915 73.7198 42.1611 73.4561 42.3896C73.1924 42.6094 72.9507 42.8027 72.731 42.9697V44.4858C72.731 45.6372 72.6387 46.6611 72.4542 47.5576C72.2784 48.4541 72.0191 49.2144 71.6763 49.8384C71.3423 50.4624 70.938 50.937 70.4634 51.2622C69.9976 51.5874 69.4747 51.75 68.8946 51.75C68.5782 51.75 68.2881 51.6841 68.0245 51.5522C67.7608 51.4292 67.5323 51.2578 67.3389 51.0381C67.1544 50.8184 67.0093 50.5591 66.9039 50.2603C66.7984 49.9702 66.7457 49.6582 66.7457 49.3242C66.7457 48.6826 66.8511 48.0894 67.0621 47.5444C67.2818 47.0083 67.5762 46.4985 67.9454 46.0151C68.3145 45.5405 68.7408 45.0879 69.2242 44.6572C69.7076 44.2178 70.2217 43.7827 70.7667 43.3521C70.7755 42.8687 70.7886 42.3896 70.8062 41.915C70.8326 41.4404 70.8546 40.9922 70.8721 40.5703C70.8985 40.1484 70.9205 39.7661 70.938 39.4233C70.9644 39.0806 70.9864 38.7993 71.004 38.5796C70.7051 39.186 70.3668 39.7837 69.9888 40.3726C69.6197 40.9526 69.2242 41.5063 68.8023 42.0337C68.3804 42.561 67.9366 43.0488 67.4708 43.4971C67.0137 43.9365 66.5523 44.3188 66.0865 44.644C65.6207 44.9692 65.1548 45.2197 64.689 45.3955C64.232 45.5801 63.7925 45.6724 63.3707 45.6724C62.8961 45.6724 62.4434 45.5757 62.0128 45.3823C61.5909 45.1978 61.2173 44.9033 60.8922 44.499C60.5757 44.0947 60.3253 43.5762 60.1407 42.9434C59.9473 42.3105 59.8506 41.5547 59.8506 40.6758C59.8506 39.6914 59.9605 38.6807 60.1802 37.6436C60.4 36.6064 60.7032 35.5781 61.0899 34.5586C61.4766 33.5391 61.938 32.5415 62.4742 31.5659C63.0103 30.5903 63.5948 29.6719 64.2276 28.8105C64.8604 27.9404 65.5328 27.145 66.2447 26.4243C66.9566 25.6948 67.6817 25.0664 68.42 24.5391C69.1583 24.0117 69.8965 23.603 70.6348 23.313C71.3819 23.0142 72.107 22.8647 72.8101 22.8647C73.5484 22.8647 74.1373 23.0537 74.5767 23.4316C75.025 23.8008 75.2491 24.3281 75.2491 25.0137C75.2491 25.3828 75.17 25.7432 75.0118 26.0947C74.8624 26.4375 74.6558 26.7715 74.3922 27.0967C74.1373 27.4131 73.8472 27.7163 73.522 28.0063C73.1968 28.2876 72.8629 28.5469 72.5201 28.7842C72.1861 29.0215 71.8521 29.2324 71.5181 29.417C71.1929 29.6016 70.9029 29.7554 70.648 29.8784L70.2525 29.3379C70.5865 29.1709 70.9512 28.9336 71.3467 28.626C71.7422 28.3184 72.1114 27.9712 72.4542 27.5845C72.7969 27.1978 73.0826 26.7803 73.3111 26.332C73.5396 25.8838 73.6539 25.4355 73.6539 24.9873C73.6539 24.6094 73.5528 24.2974 73.3506 24.0513C73.1573 23.7964 72.8453 23.6689 72.4146 23.6689C71.7466 23.6689 71.0303 23.8755 70.2657 24.2886C69.5098 24.7017 68.754 25.2773 67.9981 26.0156C67.251 26.7539 66.5347 27.6372 65.8492 28.6655C65.1636 29.6851 64.5572 30.8057 64.0298 32.0273C63.5025 33.249 63.0806 34.5454 62.7642 35.9165C62.4478 37.2876 62.2896 38.6938 62.2896 40.1353C62.2896 40.7681 62.3336 41.335 62.4214 41.8359C62.5181 42.3369 62.65 42.7632 62.817 43.1147C62.9927 43.4575 63.2037 43.7256 63.4498 43.9189C63.7047 44.1035 63.9903 44.1958 64.3067 44.1958C64.6934 44.1958 65.1153 44.0771 65.5723 43.8398C66.0294 43.6025 66.4864 43.2817 66.9434 42.8774C67.4092 42.4731 67.8663 42.0073 68.3145 41.48C68.7628 40.9438 69.1758 40.3813 69.5538 39.7925C69.9317 39.2036 70.2613 38.606 70.5425 37.9995C70.8238 37.3931 71.0303 36.8174 71.1622 36.2725C71.2149 35.6309 71.2676 35.0464 71.3204 34.519C71.3731 33.9829 71.4214 33.5127 71.4654 33.1084C71.5181 32.7041 71.5665 32.3789 71.6104 32.1328C71.6544 31.8779 71.6939 31.7109 71.7291 31.6318C71.7994 31.5 71.9005 31.3682 72.0323 31.2363C72.1641 31.1045 72.3047 30.9902 72.4542 30.8936C72.6124 30.7881 72.7662 30.7046 72.9156 30.6431C73.065 30.5815 73.1924 30.5508 73.2979 30.5508C73.4385 30.5508 73.5308 30.6079 73.5748 30.7222C73.6275 30.8364 73.6539 30.9595 73.6539 31.0913C73.6539 31.478 73.588 31.9922 73.4561 32.6338C73.3243 33.2754 73.1573 34.0225 72.9551 34.875C72.8672 35.2441 72.8013 35.7319 72.7574 36.3384C72.7222 36.936 72.6959 37.5776 72.6783 38.2632C72.6695 38.9399 72.6651 39.6255 72.6651 40.3198C72.6651 41.0054 72.6607 41.6206 72.6519 42.1655C73.3023 41.6909 73.8209 41.2031 74.2076 40.7021C74.6031 40.1924 74.9019 39.7354 75.1041 39.3311L75.2491 39.0542L75.7896 39.4629L75.6446 39.7397ZM70.7403 44.3276C70.3272 44.6528 69.9493 44.9956 69.6065 45.356C69.2637 45.7163 68.9693 46.103 68.7232 46.5161C68.4859 46.9292 68.2969 47.3774 68.1563 47.8608C68.0245 48.353 67.9586 48.8848 67.9586 49.4561C67.9586 50.001 68.0464 50.4053 68.2222 50.6689C68.398 50.9414 68.6221 51.0776 68.8946 51.0776C69.1671 51.0776 69.4131 50.959 69.6329 50.7217C69.8614 50.4932 70.0547 50.1108 70.213 49.5747C70.3799 49.0474 70.5074 48.353 70.5953 47.4917C70.692 46.6304 70.7403 45.5757 70.7403 44.3276ZM83.3675 42.1392C83.3236 42.2095 83.2577 42.3325 83.1698 42.5083C83.0907 42.6753 82.9852 42.8643 82.8534 43.0752C82.7303 43.2861 82.5809 43.5059 82.4051 43.7344C82.2381 43.9629 82.0448 44.1694 81.8251 44.354C81.6053 44.5386 81.3592 44.6924 81.0868 44.8154C80.8231 44.9385 80.5287 45 80.2035 45C79.9486 45 79.6849 44.9473 79.4125 44.8418C79.14 44.7363 78.8851 44.543 78.6478 44.2617C78.4193 43.9805 78.2303 43.5981 78.0809 43.1147C77.9315 42.6226 77.8568 41.9897 77.8568 41.2163C77.8568 40.478 77.8832 39.7397 77.9359 39.0015C77.9886 38.2544 78.0502 37.5732 78.1205 36.958C78.1996 36.3428 78.2743 35.8286 78.3446 35.4155C78.4149 35.0024 78.4676 34.752 78.5028 34.6641C78.538 34.585 78.6083 34.5146 78.7137 34.4531C78.8192 34.3916 78.9379 34.3433 79.0697 34.3081C79.2103 34.2729 79.3509 34.2466 79.4916 34.229C79.641 34.2114 79.7684 34.2026 79.8739 34.2026C80.0145 34.2026 80.1244 34.2378 80.2035 34.3081C80.2914 34.3784 80.3353 34.4971 80.3353 34.6641C80.3353 34.7432 80.3177 34.9014 80.2826 35.1387C80.2562 35.3672 80.2211 35.6484 80.1771 35.9824C80.1332 36.3164 80.0848 36.6855 80.0321 37.0898C79.9881 37.4941 79.9442 37.9072 79.9003 38.3291C79.8563 38.7422 79.8168 39.1553 79.7816 39.5684C79.7552 39.9727 79.7421 40.3418 79.7421 40.6758C79.7421 41.6338 79.8431 42.3457 80.0453 42.8115C80.2562 43.2773 80.599 43.5103 81.0736 43.5103C81.4779 43.5103 81.8866 43.2158 82.2997 42.627C82.7215 42.0381 83.0863 41.1812 83.3939 40.0562C83.4379 39.5815 83.4774 39.0762 83.5126 38.54C83.5565 37.9951 83.5961 37.481 83.6312 36.9976C83.6664 36.5054 83.6971 36.0659 83.7235 35.6792C83.7587 35.2925 83.7894 35.0156 83.8158 34.8486C83.8422 34.7256 83.9125 34.6245 84.0267 34.5454C84.141 34.4575 84.2684 34.3916 84.409 34.3477C84.5585 34.2949 84.6991 34.2598 84.8309 34.2422C84.9715 34.2158 85.077 34.2026 85.1473 34.2026C85.2967 34.2026 85.3978 34.2378 85.4506 34.3081C85.5121 34.3696 85.5428 34.4707 85.5428 34.6113C85.5428 34.7344 85.5297 34.9717 85.5033 35.3232C85.4857 35.666 85.4593 36.0703 85.4242 36.5361C85.3978 36.9932 85.3671 37.4854 85.3319 38.0127C85.2967 38.54 85.2616 39.0498 85.2264 39.542C85.2001 40.0254 85.1737 40.4648 85.1473 40.8604C85.1297 41.2559 85.121 41.5547 85.121 41.7568C85.121 42.3545 85.1517 42.8247 85.2132 43.1675C85.2836 43.5103 85.433 43.6816 85.6615 43.6816C85.8285 43.6816 86.0087 43.5762 86.202 43.3652C86.4042 43.1455 86.6195 42.8423 86.848 42.4556C87.0853 42.0688 87.3402 41.6118 87.6127 41.0845C87.8851 40.5483 88.1796 39.9639 88.496 39.3311L88.6278 39.0542L89.1683 39.4629L89.0365 39.7397C88.6146 40.5747 88.2411 41.3218 87.9159 41.981C87.5995 42.6313 87.2963 43.1807 87.0062 43.6289C86.7162 44.0771 86.4217 44.4199 86.1229 44.6572C85.8241 44.8857 85.4901 45 85.121 45C84.7782 45 84.4925 44.9341 84.264 44.8022C84.0443 44.6704 83.8685 44.4814 83.7367 44.2354C83.6048 43.9893 83.5082 43.6904 83.4466 43.3389C83.3939 42.9873 83.3675 42.5874 83.3675 42.1392ZM92.0133 39.1992L91.8815 39.4629L91.7497 39.7397L91.2091 39.3311L91.341 39.0542C91.5607 38.606 91.7409 38.1577 91.8815 37.7095C92.0309 37.2524 92.1496 36.8262 92.2375 36.4307C92.3341 36.0352 92.4132 35.688 92.4748 35.3892C92.5363 35.0903 92.5978 34.875 92.6593 34.7432C92.7121 34.6377 92.7868 34.5542 92.8835 34.4927C92.9889 34.4224 93.0944 34.3652 93.1999 34.3213C93.3141 34.2773 93.4196 34.2466 93.5163 34.229C93.6217 34.2114 93.6964 34.2026 93.7404 34.2026C93.9338 34.2026 94.0612 34.2422 94.1227 34.3213C94.193 34.4004 94.2282 34.541 94.2282 34.7432C94.2282 34.8398 94.2062 35.0815 94.1623 35.4683C94.1271 35.8462 94.0832 36.3252 94.0304 36.9053C93.9865 37.4766 93.9425 38.1226 93.8986 38.8433C93.8634 39.5552 93.8459 40.2935 93.8459 41.0581C93.8459 41.6118 93.8722 42.0513 93.925 42.3765C93.9777 42.6929 94.0436 42.9302 94.1227 43.0884C94.2106 43.2466 94.3029 43.3477 94.3996 43.3916C94.505 43.4355 94.6105 43.4575 94.716 43.4575C94.8566 43.4575 95.0148 43.396 95.1906 43.2729C95.3664 43.1499 95.5729 42.9346 95.8102 42.627C96.0475 42.3105 96.32 41.8887 96.6276 41.3613C96.9352 40.8252 97.2956 40.1484 97.7087 39.3311L97.8537 39.0542L98.3942 39.4629L98.2492 39.7397C97.9152 40.3901 97.5812 41.0317 97.2472 41.6646C96.922 42.2974 96.588 42.8599 96.2453 43.3521C95.9113 43.8442 95.5729 44.2441 95.2301 44.5518C94.8874 44.8506 94.5446 45 94.2018 45C93.8415 45 93.5295 44.9297 93.2658 44.7891C93.0109 44.6396 92.7956 44.3979 92.6198 44.064C92.4528 43.73 92.3254 43.2905 92.2375 42.7456C92.1584 42.1919 92.1188 41.5107 92.1188 40.7021C92.1188 40.4736 92.1188 40.2363 92.1188 39.9902C92.1188 39.7354 92.1276 39.4717 92.1452 39.1992H92.0133ZM94.716 31.5C94.716 31.8076 94.6105 32.0669 94.3996 32.2778C94.1974 32.48 93.9425 32.5811 93.6349 32.5811C93.3361 32.5811 93.0812 32.48 92.8703 32.2778C92.6593 32.0669 92.5539 31.8076 92.5539 31.5C92.5539 31.2012 92.6593 30.9463 92.8703 30.7354C93.0812 30.5244 93.3361 30.4189 93.6349 30.4189C93.9425 30.4189 94.1974 30.5244 94.3996 30.7354C94.6105 30.9463 94.716 31.2012 94.716 31.5ZM100.501 40.6758C100.501 39.7441 100.536 38.8081 100.606 37.8677C100.677 36.9272 100.769 35.9736 100.883 35.0068H99.6836L99.8286 34.2026H100.989C101.112 33.3062 101.235 32.4097 101.358 31.5132C101.49 30.6079 101.608 29.7026 101.714 28.7974H103.059C103.041 28.9907 103.015 29.272 102.979 29.6411C102.953 30.0015 102.918 30.4233 102.874 30.9067C102.839 31.3813 102.804 31.9043 102.769 32.4756C102.733 33.0381 102.698 33.6138 102.663 34.2026H105.221L105.089 35.0068H102.61C102.575 35.5078 102.544 36 102.518 36.4834C102.492 36.9668 102.465 37.4282 102.439 37.8677C102.421 38.2983 102.408 38.6982 102.399 39.0674C102.391 39.4277 102.386 39.7397 102.386 40.0034C102.386 40.6714 102.404 41.2295 102.439 41.6777C102.483 42.126 102.544 42.4863 102.623 42.7588C102.711 43.0312 102.817 43.2246 102.94 43.3389C103.072 43.4531 103.221 43.5103 103.388 43.5103C103.608 43.5103 103.85 43.4004 104.113 43.1807C104.386 42.9521 104.667 42.6489 104.957 42.271C105.247 41.8931 105.541 41.4536 105.84 40.9526C106.139 40.4429 106.429 39.9023 106.71 39.3311L106.842 39.0542L107.383 39.4629L107.251 39.7397C106.847 40.5571 106.442 41.291 106.038 41.9414C105.643 42.5918 105.251 43.1455 104.865 43.6025C104.478 44.0508 104.1 44.3979 103.731 44.644C103.362 44.8813 103.006 45 102.663 45C102.32 45 102.013 44.9209 101.74 44.7627C101.477 44.6045 101.252 44.354 101.068 44.0112C100.883 43.6597 100.743 43.2114 100.646 42.6665C100.549 42.1216 100.501 41.458 100.501 40.6758ZM117.545 41.7305C117.545 42.2314 117.589 42.6533 117.677 42.9961C117.764 43.3389 117.918 43.5103 118.138 43.5103C118.27 43.5103 118.41 43.4487 118.56 43.3257C118.718 43.1938 118.898 42.9829 119.1 42.6929C119.303 42.4028 119.531 42.0293 119.786 41.5723C120.05 41.1064 120.348 40.5396 120.682 39.8716L121.078 39.0542L121.618 39.4629L121.223 40.2803C120.854 41.0186 120.507 41.6821 120.181 42.271C119.865 42.8511 119.562 43.3433 119.272 43.7476C118.982 44.1519 118.696 44.4639 118.415 44.6836C118.142 44.8945 117.87 45 117.597 45C117.307 45 117.061 44.9209 116.859 44.7627C116.666 44.6045 116.503 44.3892 116.371 44.1167C116.24 43.8354 116.138 43.5146 116.068 43.1543C115.998 42.7852 115.949 42.394 115.923 41.981C115.712 42.4028 115.479 42.7983 115.224 43.1675C114.969 43.5278 114.701 43.8442 114.42 44.1167C114.148 44.3892 113.862 44.6045 113.563 44.7627C113.264 44.9209 112.966 45 112.667 45C112.227 45 111.801 44.9077 111.388 44.7231C110.975 44.5386 110.606 44.2573 110.281 43.8794C109.964 43.5015 109.709 43.0269 109.516 42.4556C109.323 41.8755 109.226 41.1943 109.226 40.4121C109.226 39.498 109.344 38.6631 109.582 37.9072C109.819 37.1426 110.14 36.4878 110.544 35.9429C110.948 35.3892 111.414 34.9629 111.942 34.6641C112.469 34.3564 113.023 34.2026 113.603 34.2026C113.954 34.2026 114.28 34.2817 114.578 34.4399C114.877 34.5981 115.136 34.7915 115.356 35.02C115.585 35.2397 115.774 35.4771 115.923 35.7319C116.073 35.978 116.174 36.189 116.226 36.3647L116.385 35.0859C116.402 34.9189 116.481 34.7783 116.622 34.6641C116.771 34.5498 116.934 34.4619 117.11 34.4004C117.285 34.3301 117.457 34.2817 117.624 34.2554C117.791 34.2202 117.909 34.2026 117.98 34.2026C118.085 34.2026 118.156 34.2202 118.191 34.2554C118.226 34.2905 118.243 34.3608 118.243 34.4663C118.243 34.5981 118.204 34.8662 118.125 35.2705C118.054 35.666 117.975 36.1758 117.887 36.7998C117.808 37.415 117.729 38.1401 117.65 38.9751C117.58 39.8101 117.545 40.7285 117.545 41.7305ZM116.094 38.25C116.094 37.8457 116.033 37.4502 115.91 37.0635C115.787 36.668 115.62 36.3208 115.409 36.022C115.198 35.7144 114.952 35.4683 114.671 35.2837C114.398 35.0991 114.108 35.0068 113.801 35.0068C113.423 35.0068 113.067 35.1167 112.733 35.3364C112.407 35.5474 112.122 35.8506 111.876 36.2461C111.638 36.6328 111.449 37.103 111.309 37.6567C111.168 38.2017 111.098 38.8037 111.098 39.4629C111.098 40.7812 111.304 41.7876 111.718 42.4819C112.131 43.1675 112.68 43.5103 113.365 43.5103C113.664 43.5103 113.972 43.3916 114.288 43.1543C114.614 42.9082 114.908 42.561 115.172 42.1128C115.444 41.6558 115.664 41.1021 115.831 40.4517C116.007 39.8013 116.094 39.0674 116.094 38.25ZM123.646 39.3311L123.778 39.0542C123.91 38.7905 124.028 38.5181 124.134 38.2368C124.248 37.9556 124.345 37.6919 124.424 37.4458C124.503 37.1909 124.565 36.9668 124.608 36.7734C124.652 36.5713 124.683 36.4175 124.701 36.312C124.472 36.2856 124.253 36.2285 124.042 36.1406C123.831 36.0527 123.646 35.9341 123.488 35.7847C123.33 35.6353 123.207 35.4595 123.119 35.2573C123.022 35.0552 122.974 34.8267 122.974 34.5718C122.974 34.3696 123.009 34.1895 123.079 34.0312C123.149 33.873 123.246 33.7412 123.369 33.6357C123.483 33.5303 123.615 33.4512 123.765 33.3984C123.905 33.3369 124.055 33.3062 124.213 33.3062C124.424 33.3062 124.608 33.3501 124.767 33.438C124.925 33.5259 125.057 33.6445 125.162 33.7939C125.268 33.9346 125.347 34.1016 125.399 34.2949C125.452 34.4795 125.479 34.6729 125.479 34.875C125.725 34.875 125.988 34.8398 126.27 34.7695C126.56 34.6992 126.85 34.6245 127.14 34.5454C127.43 34.4575 127.715 34.3784 127.997 34.3081C128.278 34.2378 128.537 34.2026 128.774 34.2026C128.977 34.2026 129.139 34.2466 129.262 34.3345C129.385 34.4136 129.447 34.5498 129.447 34.7432C129.447 34.8838 129.403 35.1167 129.315 35.4419C129.236 35.7671 129.135 36.145 129.012 36.5757C128.889 37.0063 128.753 37.4766 128.603 37.9863C128.462 38.4873 128.331 38.9971 128.208 39.5156C128.085 40.0254 127.979 40.522 127.891 41.0054C127.812 41.4888 127.773 41.9194 127.773 42.2974C127.773 42.772 127.825 43.0928 127.931 43.2598C128.036 43.4268 128.225 43.5103 128.498 43.5103C128.612 43.5103 128.753 43.4619 128.919 43.3652C129.095 43.2598 129.306 43.062 129.552 42.772C129.798 42.4731 130.088 42.0513 130.422 41.5063C130.765 40.9526 131.161 40.2275 131.609 39.3311L131.741 39.0542L132.281 39.4629L132.149 39.7397C131.622 40.7944 131.152 41.6602 130.739 42.3369C130.326 43.0137 129.943 43.5498 129.592 43.9453C129.249 44.3408 128.924 44.6177 128.616 44.7759C128.309 44.9253 128.001 45 127.693 45C127.175 45 126.753 44.8022 126.428 44.4067C126.103 44.0112 125.94 43.4004 125.94 42.5742C125.94 42.126 126.002 41.6602 126.125 41.1768C126.248 40.6934 126.401 40.2144 126.586 39.7397C126.771 39.2563 126.977 38.7817 127.206 38.3159C127.434 37.8501 127.649 37.4106 127.852 36.9976C128.063 36.5757 128.252 36.1846 128.419 35.8242C128.586 35.4639 128.704 35.1475 128.774 34.875L128.695 34.7959C128.555 34.7959 128.366 34.8706 128.128 35.02C127.891 35.1694 127.623 35.3408 127.324 35.5342C127.034 35.7188 126.722 35.8945 126.388 36.0615C126.054 36.2285 125.716 36.3296 125.373 36.3647C125.356 36.4878 125.316 36.668 125.254 36.9053C125.202 37.1426 125.127 37.4062 125.03 37.6963C124.934 37.9863 124.824 38.2852 124.701 38.5928C124.578 38.9004 124.45 39.1904 124.318 39.4629L124.187 39.7397L123.646 39.3311ZM124.292 34.0444C124.213 34.0444 124.147 34.0708 124.094 34.1235C124.042 34.1763 124.015 34.2378 124.015 34.3081C124.015 34.4136 124.042 34.5059 124.094 34.585C124.147 34.6553 124.213 34.7168 124.292 34.7695C124.371 34.8135 124.45 34.8486 124.529 34.875C124.617 34.8926 124.692 34.9014 124.753 34.9014C124.753 34.6553 124.714 34.4531 124.635 34.2949C124.556 34.1279 124.441 34.0444 124.292 34.0444Z" fill="#1E1003"/>
</g>
<defs>
<filter id="filter0_d" x="51.0001" y="266.983" width="10.7391" height="46.0523" filterUnits="userSpaceOnUse" color-interpolation-filters="sRGB">
<feFlood flood-opacity="0" result="BackgroundImageFix"/>
<feColorMatrix in="SourceAlpha" type="matrix" values="0 0 0 0 0 0 0 0 0 0 0 0 0 0 0 0 0 0 127 0"/>
<feOffset dy="4"/>
<feGaussianBlur stdDeviation="2"/>
<feColorMatrix type="matrix" values="0 0 0 0 0 0 0 0 0 0 0 0 0 0 0 0 0 0 0.25 0"/>
<feBlend mode="normal" in2="BackgroundImageFix" result="effect1_dropShadow"/>
<feBlend mode="normal" in="SourceGraphic" in2="effect1_dropShadow" result="shape"/>
</filter>
<filter id="filter1_d" x="52.9836" y="175" width="25.0649" height="138.228" filterUnits="userSpaceOnUse" color-interpolation-filters="sRGB">
<feFlood flood-opacity="0" result="BackgroundImageFix"/>
<feColorMatrix in="SourceAlpha" type="matrix" values="0 0 0 0 0 0 0 0 0 0 0 0 0 0 0 0 0 0 127 0"/>
<feOffset dy="4"/>
<feGaussianBlur stdDeviation="2"/>
<feColorMatrix type="matrix" values="0 0 0 0 0 0 0 0 0 0 0 0 0 0 0 0 0 0 0.25 0"/>
<feBlend mode="normal" in2="BackgroundImageFix" result="effect1_dropShadow"/>
<feBlend mode="normal" in="SourceGraphic" in2="effect1_dropShadow" result="shape"/>
</filter>
<filter id="filter2_d" x="115" y="175" width="25.0649" height="138.228" filterUnits="userSpaceOnUse" color-interpolation-filters="sRGB">
<feFlood flood-opacity="0" result="BackgroundImageFix"/>
<feColorMatrix in="SourceAlpha" type="matrix" values="0 0 0 0 0 0 0 0 0 0 0 0 0 0 0 0 0 0 127 0"/>
<feOffset dy="4"/>
<feGaussianBlur stdDeviation="2"/>
<feColorMatrix type="matrix" values="0 0 0 0 0 0 0 0 0 0 0 0 0 0 0 0 0 0 0.25 0"/>
<feBlend mode="normal" in2="BackgroundImageFix" result="effect1_dropShadow"/>
<feBlend mode="normal" in="SourceGraphic" in2="effect1_dropShadow" result="shape"/>
</filter>
<filter id="filter3_d" x="50.8622" y="82" width="44.3175" height="231.3" filterUnits="userSpaceOnUse" color-interpolation-filters="sRGB">
<feFlood flood-opacity="0" result="BackgroundImageFix"/>
<feColorMatrix in="SourceAlpha" type="matrix" values="0 0 0 0 0 0 0 0 0 0 0 0 0 0 0 0 0 0 127 0"/>
<feOffset dy="4"/>
<feGaussianBlur stdDeviation="2"/>
<feColorMatrix type="matrix" values="0 0 0 0 0 0 0 0 0 0 0 0 0 0 0 0 0 0 0.25 0"/>
<feBlend mode="normal" in2="BackgroundImageFix" result="effect1_dropShadow"/>
<feBlend mode="normal" in="SourceGraphic" in2="effect1_dropShadow" result="shape"/>
</filter>
<filter id="filter4_d" x="99" y="82" width="44.3175" height="231.3" filterUnits="userSpaceOnUse" color-interpolation-filters="sRGB">
<feFlood flood-opacity="0" result="BackgroundImageFix"/>
<feColorMatrix in="SourceAlpha" type="matrix" values="0 0 0 0 0 0 0 0 0 0 0 0 0 0 0 0 0 0 127 0"/>
<feOffset dy="4"/>
<feGaussianBlur stdDeviation="2"/>
<feColorMatrix type="matrix" values="0 0 0 0 0 0 0 0 0 0 0 0 0 0 0 0 0 0 0.25 0"/>
<feBlend mode="normal" in2="BackgroundImageFix" result="effect1_dropShadow"/>
<feBlend mode="normal" in="SourceGraphic" in2="effect1_dropShadow" result="shape"/>
</filter>
<filter id="filter5_d" x="132" y="266.983" width="10.7391" height="46.0523" filterUnits="userSpaceOnUse" color-interpolation-filters="sRGB">
<feFlood flood-opacity="0" result="BackgroundImageFix"/>
<feColorMatrix in="SourceAlpha" type="matrix" values="0 0 0 0 0 0 0 0 0 0 0 0 0 0 0 0 0 0 127 0"/>
<feOffset dy="4"/>
<feGaussianBlur stdDeviation="2"/>
<feColorMatrix type="matrix" values="0 0 0 0 0 0 0 0 0 0 0 0 0 0 0 0 0 0 0.25 0"/>
<feBlend mode="normal" in2="BackgroundImageFix" result="effect1_dropShadow"/>
<feBlend mode="normal" in="SourceGraphic" in2="effect1_dropShadow" result="shape"/>
</filter>
<filter id="filter6_d" x="55.8506" y="18.8647" width="80.4307" height="36.8853" filterUnits="userSpaceOnUse" color-interpolation-filters="sRGB">
<feFlood flood-opacity="0" result="BackgroundImageFix"/>
<feColorMatrix in="SourceAlpha" type="matrix" values="0 0 0 0 0 0 0 0 0 0 0 0 0 0 0 0 0 0 127 0"/>
<feOffset/>
<feGaussianBlur stdDeviation="2"/>
<feColorMatrix type="matrix" values="0 0 0 0 0 0 0 0 0 0 0 0 0 0 0 0 0 0 0.25 0"/>
<feBlend mode="normal" in2="BackgroundImageFix" result="effect1_dropShadow"/>
<feBlend mode="normal" in="SourceGraphic" in2="effect1_dropShadow" result="shape"/>
</filter>
</defs>
</svg>
