<svg width="178" height="260" viewBox="0 0 178 260" fill="none" xmlns="http://www.w3.org/2000/svg">
<path d="M9.27478 67.3537L17.2664 66.9874L17.5411 72.9811L9.54953 73.3474L9.27478 67.3537Z" fill="#3700D5"/>
<rect y="60.4114" width="9" height="20" rx="2" transform="rotate(-2.62 0 60.4114)" fill="#3700D5"/>
<path d="M168.266 67.3537L160.275 66.9874L160 72.9811L167.992 73.3474L168.266 67.3537Z" fill="#414141"/>
<rect width="9" height="20" rx="2" transform="matrix(-0.998955 -0.0457117 -0.0457117 0.998955 177.541 60.4114)" fill="#414141"/>
<path d="M163.266 180.354L155.275 179.987L155 185.981L162.992 186.347L163.266 180.354Z" fill="#414141"/>
<rect width="9" height="20" rx="2" transform="matrix(-0.998955 -0.0457117 -0.0457117 0.998955 172.541 173.411)" fill="#414141"/>
<path d="M15.2748 180.354L23.2664 179.987L23.5411 185.981L15.5495 186.347L15.2748 180.354Z" fill="#414141"/>
<rect x="6" y="173.411" width="9" height="20" rx="2" transform="rotate(-2.62 6 173.411)" fill="#414141"/>
<path fill-rule="evenodd" clip-rule="evenodd" d="M14.5077 11L25.5385 250H30.8639H147.136H152.462L163.492 11H155V10.9802C147.9 13.235 137.614 14.1551 126.314 13.1665C108.987 11.6506 94.7873 6.12926 91.067 0H86.6745C82.5607 5.95359 68.6255 11.2509 51.7105 12.7307C40.918 13.6749 31.0503 12.8781 24 10.8401V11H14.5077Z" fill="#A36A42"/>
<g filter="url(#filter0_d)">
<path d="M51.5 69.5L68 86.5L66.4999 87.5L50.2928 71.4142L51.5 69.5Z" fill="#3700D4"/>
<path d="M68.0001 86.5L77.3455 250.405L75.4759 250.455L66.5 87.5L68.0001 86.5Z" fill="#3700D4"/>
</g>
<g filter="url(#filter1_d)">
<path d="M125.743 70L109.45 86.5L110.951 87.5L127.158 71.4142L125.743 70Z" fill="white"/>
<path d="M109.45 86.5L100.105 250.405L101.975 250.455L110.95 87.5L109.45 86.5Z" fill="white"/>
</g>
<g filter="url(#filter2_d)">
<path d="M52.7369 191.98L50.7087 250.06L48.8238 250.098L50.738 191.914L52.7369 191.98Z" fill="white"/>
</g>
<g filter="url(#filter3_d)">
<path d="M124 191.98L126.028 250.06L127.913 250.098L125.999 191.914L124 191.98Z" fill="white"/>
</g>
<circle cx="46.5" cy="67.5" r="12.5" fill="#D8D8D8"/>
<circle cx="46.5" cy="67.5" r="5.5" fill="white"/>
<circle cx="47.5" cy="68.5" r="5.5" fill="black" fill-opacity="0.1"/>
<circle cx="46.5" cy="182.5" r="12.5" fill="#D8D8D8"/>
<circle cx="46.5" cy="182.5" r="5.5" fill="white"/>
<circle cx="47.5" cy="183.5" r="5.5" fill="black" fill-opacity="0.1"/>
<circle cx="131.5" cy="67.5" r="12.5" fill="#D8D8D8"/>
<circle cx="131.5" cy="67.5" r="5.5" fill="white"/>
<circle cx="132.5" cy="68.5" r="5.5" fill="black" fill-opacity="0.1"/>
<circle cx="131.5" cy="182.5" r="12.5" fill="#D8D8D8"/>
<circle cx="131.5" cy="182.5" r="5.5" fill="white"/>
<circle cx="132.5" cy="183.5" r="5.5" fill="black" fill-opacity="0.1"/>
<g filter="url(#filter4_d)">
<path d="M63.3613 46C63.7454 46 64.1165 45.9089 64.4746 45.7266C64.8327 45.5443 65.1777 45.2904 65.5098 44.9648C65.8418 44.6393 66.1543 44.252 66.4473 43.8027C66.7467 43.3535 67.0299 42.8652 67.2969 42.3379V41.8789C67.2969 41.0651 67.3262 40.1992 67.3848 39.2812C67.4499 38.3568 67.541 37.4388 67.6582 36.5273C67.7754 35.6159 67.9186 34.7435 68.0879 33.9102C68.2572 33.0768 68.446 32.3411 68.6543 31.7031C68.8691 31.0651 69.1035 30.5573 69.3574 30.1797C69.6113 29.7956 69.8783 29.6035 70.1582 29.6035C70.36 29.6035 70.5098 29.7077 70.6074 29.916C70.7051 30.1243 70.7539 30.4531 70.7539 30.9023C70.7539 31.3646 70.7116 31.9505 70.627 32.6602C70.5488 33.3698 70.4284 34.151 70.2656 35.0039C70.1029 35.8503 69.8978 36.7487 69.6504 37.6992C69.403 38.6432 69.1133 39.584 68.7812 40.5215V41.1367C68.7812 42.3672 68.8757 43.3014 69.0645 43.9395C69.2598 44.5775 69.5918 44.8965 70.0605 44.8965C70.2428 44.8965 70.4154 44.8379 70.5781 44.7207C70.7409 44.6035 70.9069 44.4212 71.0762 44.1738C71.2454 43.9264 71.431 43.6074 71.6328 43.2168C71.8411 42.8197 72.082 42.3477 72.3555 41.8008L72.4629 41.5957L72.8535 41.8984L72.7559 42.1035C72.4303 42.7546 72.1406 43.3242 71.8867 43.8125C71.6328 44.2943 71.3822 44.6979 71.1348 45.0234C70.8939 45.349 70.64 45.5931 70.373 45.7559C70.1061 45.9186 69.8001 46 69.4551 46C68.804 46 68.3092 45.7591 67.9707 45.2773C67.6387 44.7891 67.4271 44.0892 67.3359 43.1777C67.069 43.666 66.7826 44.1152 66.4766 44.5254C66.1771 44.929 65.8548 45.2773 65.5098 45.5703C65.1712 45.8633 64.8132 46.0911 64.4355 46.2539C64.0645 46.4167 63.6706 46.498 63.2539 46.498C62.8307 46.498 62.4206 46.4232 62.0234 46.2734C61.6263 46.1237 61.2747 45.8958 60.9688 45.5898C60.6628 45.2773 60.4186 44.8835 60.2363 44.4082C60.054 43.9264 59.9629 43.3568 59.9629 42.6992C59.9629 41.9831 60.0345 41.2767 60.1777 40.5801C60.3275 39.8835 60.513 39.2031 60.7344 38.5391C60.9622 37.8685 61.2031 37.2174 61.457 36.5859C61.7174 35.9544 61.9583 35.349 62.1797 34.7695C62.4076 34.1836 62.5931 33.627 62.7363 33.0996C62.8861 32.5658 62.9609 32.0645 62.9609 31.5957C62.9609 31.3158 62.9316 31.0814 62.873 30.8926C62.8145 30.6973 62.7298 30.541 62.6191 30.4238C62.515 30.3066 62.388 30.2253 62.2383 30.1797C62.0951 30.1276 61.9355 30.1016 61.7598 30.1016C61.278 30.1016 60.806 30.2122 60.3438 30.4336C59.888 30.6549 59.4551 30.9512 59.0449 31.3223C58.6413 31.6934 58.2669 32.1198 57.9219 32.6016C57.5833 33.0833 57.2904 33.5879 57.043 34.1152C56.7956 34.6426 56.6035 35.1732 56.4668 35.707C56.3301 36.2344 56.2617 36.7324 56.2617 37.2012C56.2617 37.7025 56.3561 38.0768 56.5449 38.3242C56.7337 38.5716 57.0039 38.6953 57.3555 38.6953C57.6094 38.6953 57.8665 38.6204 58.127 38.4707C58.3874 38.3145 58.638 38.0996 58.8789 37.8262C59.1263 37.5527 59.3574 37.2272 59.5723 36.8496C59.7936 36.472 59.9889 36.0553 60.1582 35.5996L60.5586 35.8047C60.4349 36.1042 60.2656 36.4492 60.0508 36.8398C59.8424 37.2305 59.5918 37.6016 59.2988 37.9531C59.0059 38.3047 58.6706 38.6009 58.293 38.8418C57.9219 39.0827 57.5117 39.2031 57.0625 39.2031C56.7891 39.2031 56.5352 39.1608 56.3008 39.0762C56.0664 38.985 55.8646 38.8516 55.6953 38.6758C55.526 38.5 55.3958 38.2819 55.3047 38.0215C55.207 37.7611 55.1582 37.4551 55.1582 37.1035C55.1582 36.5176 55.2591 35.9251 55.4609 35.3262C55.6562 34.7272 55.9232 34.151 56.2617 33.5977C56.6003 33.0378 56.9974 32.5169 57.4531 32.0352C57.9089 31.5469 58.3906 31.1237 58.8984 30.7656C59.4128 30.4076 59.9401 30.1243 60.4805 29.916C61.0208 29.7077 61.5482 29.6035 62.0625 29.6035C62.375 29.6035 62.6582 29.6556 62.9121 29.7598C63.1725 29.8574 63.3939 30.0072 63.5762 30.209C63.765 30.4043 63.9082 30.6517 64.0059 30.9512C64.11 31.2507 64.1621 31.599 64.1621 31.9961C64.1621 32.4779 64.0905 33.0215 63.9473 33.627C63.8105 34.2324 63.638 34.8704 63.4297 35.541C63.2279 36.2051 63.0033 36.8919 62.7559 37.6016C62.515 38.3047 62.2904 39.0046 62.082 39.7012C61.8802 40.3913 61.7077 41.0618 61.5645 41.7129C61.4277 42.3574 61.3594 42.9531 61.3594 43.5C61.3594 44.0339 61.4277 44.4668 61.5645 44.7988C61.7077 45.1243 61.8802 45.3783 62.082 45.5605C62.2839 45.7363 62.4987 45.8535 62.7266 45.9121C62.9609 45.9707 63.1725 46 63.3613 46ZM69.8555 30.502C69.7643 30.502 69.6797 30.6322 69.6016 30.8926C69.5234 31.1465 69.4486 31.4915 69.377 31.9277C69.3118 32.3574 69.25 32.8587 69.1914 33.4316C69.1328 33.998 69.0775 34.5938 69.0254 35.2188C68.9798 35.8438 68.9408 36.4785 68.9082 37.123C68.8757 37.7611 68.8464 38.3665 68.8203 38.9395C69.0352 38.2038 69.224 37.4746 69.3867 36.752C69.5495 36.0228 69.6862 35.3327 69.7969 34.6816C69.9141 34.0241 69.9987 33.4251 70.0508 32.8848C70.1094 32.3379 70.1387 31.8822 70.1387 31.5176C70.1387 31.1986 70.1126 30.9512 70.0605 30.7754C70.015 30.5931 69.9466 30.502 69.8555 30.502ZM82.7344 41.8984L82.6367 42.1035C82.3633 42.6504 82.1029 43.1615 81.8555 43.6367C81.6081 44.112 81.3607 44.5254 81.1133 44.877C80.8659 45.2285 80.612 45.5052 80.3516 45.707C80.0977 45.9023 79.8242 46 79.5312 46C79.2383 46 78.9518 45.9219 78.6719 45.7656C78.3919 45.6094 78.112 45.3913 77.832 45.1113C77.5586 44.8314 77.2819 44.5059 77.002 44.1348C76.7285 43.7572 76.4453 43.347 76.1523 42.9043L75.8105 42.9629C75.7975 43.5358 75.778 44.0534 75.752 44.5156C75.7259 44.9714 75.6934 45.3457 75.6543 45.6387C75.6348 45.7689 75.5794 45.8633 75.4883 45.9219C75.4036 45.974 75.2865 46 75.1367 46C74.9609 46 74.8145 45.9772 74.6973 45.9316C74.5801 45.8861 74.4889 45.8307 74.4238 45.7656C74.3522 45.694 74.3034 45.6191 74.2773 45.541C74.2448 45.4564 74.2285 45.375 74.2285 45.2969C74.2285 44.8802 74.2969 44.3626 74.4336 43.7441V38.6953C74.4336 37.4453 74.4987 36.3646 74.6289 35.4531C74.7591 34.5352 74.9349 33.7767 75.1562 33.1777C75.3776 32.5723 75.6348 32.1263 75.9277 31.8398C76.2272 31.5469 76.543 31.4004 76.875 31.4004C77.2331 31.4004 77.487 31.5176 77.6367 31.752C77.793 31.9798 77.8711 32.2956 77.8711 32.6992C77.8711 33.0508 77.819 33.5033 77.7148 34.0566C77.6107 34.6035 77.4642 35.2057 77.2754 35.8633C77.0931 36.5208 76.8783 37.2077 76.6309 37.9238C76.3835 38.6335 76.1165 39.3268 75.8301 40.0039V40.2188C76.0124 39.9258 76.224 39.6458 76.4648 39.3789C76.7122 39.112 76.9759 38.8776 77.2559 38.6758C77.5358 38.4674 77.8223 38.3047 78.1152 38.1875C78.4147 38.0638 78.7077 38.002 78.9941 38.002C79.248 38.002 79.4792 38.0378 79.6875 38.1094C79.9023 38.181 80.0879 38.2852 80.2441 38.4219C80.4004 38.5586 80.5208 38.7311 80.6055 38.9395C80.6901 39.1413 80.7324 39.3757 80.7324 39.6426C80.7324 39.916 80.6706 40.1895 80.5469 40.4629C80.4297 40.7363 80.2409 41 79.9805 41.2539C79.7266 41.5078 79.3978 41.7487 78.9941 41.9766C78.5905 42.1979 78.1022 42.3932 77.5293 42.5625C77.5684 42.6211 77.6335 42.7188 77.7246 42.8555C77.8158 42.9922 77.9232 43.1484 78.0469 43.3242C78.1771 43.4935 78.3171 43.6725 78.4668 43.8613C78.6165 44.0436 78.7695 44.2129 78.9258 44.3691C79.0885 44.5189 79.248 44.6458 79.4043 44.75C79.5605 44.8477 79.7038 44.8965 79.834 44.8965C80.0098 44.8965 80.1888 44.8249 80.3711 44.6816C80.5534 44.5319 80.7422 44.3236 80.9375 44.0566C81.1393 43.7832 81.3477 43.4577 81.5625 43.0801C81.7773 42.696 82.002 42.2695 82.2363 41.8008L82.334 41.5957L82.7344 41.8984ZM75.8301 41.0586C75.8301 41.2083 75.8268 41.3418 75.8203 41.459C75.8203 41.5697 75.8203 41.6803 75.8203 41.791C75.8203 41.8952 75.8171 42.0026 75.8105 42.1133C75.8105 42.224 75.8105 42.3477 75.8105 42.4844C76.4746 42.3867 77.0345 42.2565 77.4902 42.0938C77.9525 41.931 78.3268 41.7422 78.6133 41.5273C78.8997 41.3125 79.1081 41.0781 79.2383 40.8242C79.3685 40.5638 79.4336 40.2904 79.4336 40.0039C79.4336 39.8542 79.4076 39.7109 79.3555 39.5742C79.3099 39.431 79.2415 39.3073 79.1504 39.2031C79.0592 39.0924 78.9453 39.0046 78.8086 38.9395C78.6784 38.8743 78.5319 38.8418 78.3691 38.8418C78.1413 38.8418 77.9102 38.9036 77.6758 39.0273C77.4479 39.1445 77.2201 39.304 76.9922 39.5059C76.7708 39.7077 76.5592 39.9453 76.3574 40.2188C76.1621 40.4857 75.9863 40.7656 75.8301 41.0586ZM76.6895 31.8984C76.5527 31.8984 76.4323 32.0319 76.3281 32.2988C76.2305 32.5658 76.1458 32.9824 76.0742 33.5488C76.0026 34.1087 75.944 34.8249 75.8984 35.6973C75.8529 36.5632 75.8171 37.5983 75.791 38.8027C76.0645 38.0801 76.2858 37.403 76.4551 36.7715C76.6243 36.1335 76.7546 35.5605 76.8457 35.0527C76.9434 34.5384 77.0085 34.0924 77.041 33.7148C77.0736 33.3307 77.0898 33.0247 77.0898 32.7969C77.0898 32.4518 77.0573 32.2174 76.9922 32.0938C76.9336 31.9635 76.8327 31.8984 76.6895 31.8984ZM88.3477 43.8809C88.3151 43.9329 88.2663 44.0241 88.2012 44.1543C88.1426 44.278 88.0645 44.418 87.9668 44.5742C87.8757 44.7305 87.765 44.8932 87.6348 45.0625C87.5111 45.2318 87.3678 45.3848 87.2051 45.5215C87.0423 45.6582 86.86 45.7721 86.6582 45.8633C86.4629 45.9544 86.2448 46 86.0039 46C85.8151 46 85.6198 45.9609 85.418 45.8828C85.2161 45.8047 85.0273 45.6615 84.8516 45.4531C84.6823 45.2448 84.5423 44.9616 84.4316 44.6035C84.321 44.2389 84.2656 43.7702 84.2656 43.1973C84.2656 42.6504 84.2852 42.1035 84.3242 41.5566C84.3633 41.0033 84.4089 40.4987 84.4609 40.043C84.5195 39.5872 84.5749 39.2064 84.627 38.9004C84.679 38.5944 84.7181 38.4089 84.7441 38.3438C84.7702 38.2852 84.8223 38.2331 84.9004 38.1875C84.9785 38.1419 85.0664 38.1061 85.1641 38.0801C85.2682 38.054 85.3724 38.0345 85.4766 38.0215C85.5872 38.0085 85.6816 38.002 85.7598 38.002C85.8639 38.002 85.9453 38.028 86.0039 38.0801C86.069 38.1322 86.1016 38.2201 86.1016 38.3438C86.1016 38.4023 86.0885 38.5195 86.0625 38.6953C86.043 38.8646 86.0169 39.0729 85.9844 39.3203C85.9518 39.5677 85.916 39.8411 85.877 40.1406C85.8444 40.4401 85.8118 40.7461 85.7793 41.0586C85.7467 41.3646 85.7174 41.6706 85.6914 41.9766C85.6719 42.276 85.6621 42.5495 85.6621 42.7969C85.6621 43.5065 85.737 44.0339 85.8867 44.3789C86.043 44.724 86.2969 44.8965 86.6484 44.8965C86.9479 44.8965 87.2507 44.6784 87.5566 44.2422C87.8691 43.806 88.1393 43.1712 88.3672 42.3379C88.3997 41.9863 88.429 41.612 88.4551 41.2148C88.4876 40.8112 88.5169 40.4303 88.543 40.0723C88.569 39.7077 88.5918 39.3822 88.6113 39.0957C88.6374 38.8092 88.6602 38.6042 88.6797 38.4805C88.6992 38.3893 88.7513 38.3145 88.8359 38.2559C88.9206 38.1908 89.015 38.1419 89.1191 38.1094C89.2298 38.0703 89.334 38.0443 89.4316 38.0312C89.5358 38.0117 89.6139 38.002 89.666 38.002C89.7767 38.002 89.8516 38.028 89.8906 38.0801C89.9362 38.1257 89.959 38.2005 89.959 38.3047C89.959 38.3958 89.9492 38.5716 89.9297 38.832C89.9167 39.0859 89.8971 39.3854 89.8711 39.7305C89.8516 40.069 89.8288 40.4336 89.8027 40.8242C89.7767 41.2148 89.7507 41.5924 89.7246 41.957C89.7051 42.3151 89.6855 42.6406 89.666 42.9336C89.653 43.2266 89.6465 43.4479 89.6465 43.5977C89.6465 44.0404 89.6693 44.3887 89.7148 44.6426C89.7669 44.8965 89.8776 45.0234 90.0469 45.0234C90.1706 45.0234 90.304 44.9453 90.4473 44.7891C90.597 44.6263 90.7565 44.4017 90.9258 44.1152C91.1016 43.8288 91.2904 43.4902 91.4922 43.0996C91.694 42.7025 91.9121 42.2695 92.1465 41.8008L92.2441 41.5957L92.6445 41.8984L92.5469 42.1035C92.2344 42.722 91.9577 43.2754 91.7168 43.7637C91.4824 44.2454 91.2578 44.6523 91.043 44.9844C90.8281 45.3164 90.61 45.5703 90.3887 45.7461C90.1673 45.9154 89.9199 46 89.6465 46C89.3926 46 89.181 45.9512 89.0117 45.8535C88.849 45.7559 88.7188 45.6159 88.6211 45.4336C88.5234 45.2513 88.4518 45.0299 88.4062 44.7695C88.3672 44.5091 88.3477 44.2129 88.3477 43.8809ZM96.3535 44.7598C96.4707 44.7598 96.6042 44.6849 96.7539 44.5352C96.9102 44.3789 97.0762 44.1673 97.252 43.9004C97.4277 43.6335 97.6133 43.321 97.8086 42.9629C98.0039 42.6048 98.2057 42.2174 98.4141 41.8008L98.5117 41.5957L98.9121 41.8984L98.8145 42.1035C98.4694 42.7936 98.1602 43.3861 97.8867 43.8809C97.6198 44.3691 97.3691 44.7728 97.1348 45.0918C96.9004 45.4043 96.6758 45.6354 96.4609 45.7852C96.2526 45.9284 96.0378 46 95.8164 46C95.5234 46 95.2695 45.9056 95.0547 45.7168C94.8464 45.5215 94.6706 45.1992 94.5273 44.75C94.3906 44.2943 94.2897 43.6953 94.2246 42.9531C94.153 42.2109 94.1172 41.293 94.1172 40.1992C94.1172 38.6497 94.1823 37.3216 94.3125 36.2148C94.4427 35.1016 94.6185 34.1901 94.8398 33.4805C95.0677 32.7643 95.3281 32.2402 95.6211 31.9082C95.9206 31.5697 96.2331 31.4004 96.5586 31.4004C96.7539 31.4004 96.9167 31.4818 97.0469 31.6445C97.1836 31.8008 97.252 32.0872 97.252 32.5039C97.252 32.8294 97.2259 33.2005 97.1738 33.6172C97.1217 34.0339 97.0534 34.4798 96.9688 34.9551C96.8841 35.4303 96.7832 35.9251 96.666 36.4395C96.5488 36.9473 96.4251 37.4551 96.2949 37.9629C96.1647 38.4642 96.0312 38.959 95.8945 39.4473C95.7578 39.929 95.6243 40.3815 95.4941 40.8047C95.5332 41.6055 95.5755 42.263 95.6211 42.7773C95.6732 43.2852 95.7318 43.6855 95.7969 43.9785C95.8685 44.2715 95.9499 44.4766 96.041 44.5938C96.1322 44.7044 96.2363 44.7598 96.3535 44.7598ZM96.6172 32.7383C96.6172 32.6016 96.6009 32.4941 96.5684 32.416C96.5358 32.3379 96.4837 32.2988 96.4121 32.2988C96.3405 32.2988 96.2689 32.3997 96.1973 32.6016C96.1257 32.8034 96.054 33.0768 95.9824 33.4219C95.9173 33.7669 95.8555 34.1673 95.7969 34.623C95.7448 35.0788 95.696 35.5638 95.6504 36.0781C95.6048 36.5859 95.569 37.1068 95.543 37.6406C95.5169 38.1745 95.5007 38.6888 95.4941 39.1836C95.6504 38.6107 95.7936 38.0247 95.9238 37.4258C96.0605 36.8203 96.181 36.2344 96.2852 35.668C96.3893 35.1016 96.4707 34.5677 96.5293 34.0664C96.5879 33.5586 96.6172 33.1159 96.6172 32.7383ZM103.393 44.8965C103.62 44.8965 103.852 44.8379 104.086 44.7207C104.327 44.6035 104.568 44.4212 104.809 44.1738C105.056 43.9264 105.31 43.6074 105.57 43.2168C105.831 42.8197 106.098 42.3477 106.371 41.8008L106.469 41.5957L106.869 41.8984L106.771 42.1035C106.42 42.8001 106.068 43.3958 105.717 43.8906C105.372 44.3854 105.03 44.7891 104.691 45.1016C104.359 45.4141 104.031 45.6419 103.705 45.7852C103.38 45.9284 103.067 46 102.768 46C102.344 46 101.967 45.9121 101.635 45.7363C101.303 45.5605 101.023 45.3229 100.795 45.0234C100.567 44.7174 100.395 44.3659 100.277 43.9688C100.154 43.5651 100.092 43.1419 100.092 42.6992C100.092 41.9961 100.189 41.3581 100.385 40.7852C100.574 40.2057 100.827 39.7109 101.146 39.3008C101.472 38.8906 101.84 38.5716 102.25 38.3438C102.66 38.1159 103.087 38.002 103.529 38.002C103.979 38.002 104.32 38.1159 104.555 38.3438C104.796 38.5716 104.916 38.8581 104.916 39.2031C104.916 39.5352 104.822 39.8477 104.633 40.1406C104.444 40.4271 104.187 40.7103 103.861 40.9902C103.542 41.2637 103.171 41.5371 102.748 41.8105C102.325 42.0775 101.879 42.3542 101.41 42.6406C101.456 42.9792 101.534 43.2884 101.645 43.5684C101.755 43.8418 101.895 44.0794 102.064 44.2812C102.234 44.4766 102.429 44.6296 102.65 44.7402C102.872 44.8444 103.119 44.8965 103.393 44.8965ZM103.695 39.4961C103.695 39.2357 103.624 39.0306 103.48 38.8809C103.344 38.7311 103.174 38.6562 102.973 38.6562C102.803 38.6562 102.624 38.7181 102.436 38.8418C102.247 38.959 102.074 39.151 101.918 39.418C101.762 39.6784 101.632 40.0137 101.527 40.4238C101.423 40.834 101.371 41.332 101.371 41.918V42.1426C101.592 42.0254 101.837 41.8724 102.104 41.6836C102.377 41.4883 102.631 41.2734 102.865 41.0391C103.1 40.8047 103.295 40.5573 103.451 40.2969C103.614 40.0299 103.695 39.763 103.695 39.4961ZM110.568 44.7598C110.686 44.7598 110.819 44.6849 110.969 44.5352C111.125 44.3789 111.291 44.1673 111.467 43.9004C111.643 43.6335 111.828 43.321 112.023 42.9629C112.219 42.6048 112.421 42.2174 112.629 41.8008L112.727 41.5957L113.127 41.8984L113.029 42.1035C112.684 42.7936 112.375 43.3861 112.102 43.8809C111.835 44.3691 111.584 44.7728 111.35 45.0918C111.115 45.4043 110.891 45.6354 110.676 45.7852C110.467 45.9284 110.253 46 110.031 46C109.738 46 109.484 45.9056 109.27 45.7168C109.061 45.5215 108.885 45.1992 108.742 44.75C108.605 44.2943 108.505 43.6953 108.439 42.9531C108.368 42.2109 108.332 41.293 108.332 40.1992C108.332 38.6497 108.397 37.3216 108.527 36.2148C108.658 35.1016 108.833 34.1901 109.055 33.4805C109.283 32.7643 109.543 32.2402 109.836 31.9082C110.135 31.5697 110.448 31.4004 110.773 31.4004C110.969 31.4004 111.132 31.4818 111.262 31.6445C111.398 31.8008 111.467 32.0872 111.467 32.5039C111.467 32.8294 111.441 33.2005 111.389 33.6172C111.337 34.0339 111.268 34.4798 111.184 34.9551C111.099 35.4303 110.998 35.9251 110.881 36.4395C110.764 36.9473 110.64 37.4551 110.51 37.9629C110.38 38.4642 110.246 38.959 110.109 39.4473C109.973 39.929 109.839 40.3815 109.709 40.8047C109.748 41.6055 109.79 42.263 109.836 42.7773C109.888 43.2852 109.947 43.6855 110.012 43.9785C110.083 44.2715 110.165 44.4766 110.256 44.5938C110.347 44.7044 110.451 44.7598 110.568 44.7598ZM110.832 32.7383C110.832 32.6016 110.816 32.4941 110.783 32.416C110.751 32.3379 110.699 32.2988 110.627 32.2988C110.555 32.2988 110.484 32.3997 110.412 32.6016C110.34 32.8034 110.269 33.0768 110.197 33.4219C110.132 33.7669 110.07 34.1673 110.012 34.623C109.96 35.0788 109.911 35.5638 109.865 36.0781C109.82 36.5859 109.784 37.1068 109.758 37.6406C109.732 38.1745 109.715 38.6888 109.709 39.1836C109.865 38.6107 110.008 38.0247 110.139 37.4258C110.275 36.8203 110.396 36.2344 110.5 35.668C110.604 35.1016 110.686 34.5677 110.744 34.0664C110.803 33.5586 110.832 33.1159 110.832 32.7383ZM117.607 44.8965C117.835 44.8965 118.066 44.8379 118.301 44.7207C118.542 44.6035 118.783 44.4212 119.023 44.1738C119.271 43.9264 119.525 43.6074 119.785 43.2168C120.046 42.8197 120.312 42.3477 120.586 41.8008L120.684 41.5957L121.084 41.8984L120.986 42.1035C120.635 42.8001 120.283 43.3958 119.932 43.8906C119.587 44.3854 119.245 44.7891 118.906 45.1016C118.574 45.4141 118.245 45.6419 117.92 45.7852C117.594 45.9284 117.282 46 116.982 46C116.559 46 116.182 45.9121 115.85 45.7363C115.518 45.5605 115.238 45.3229 115.01 45.0234C114.782 44.7174 114.609 44.3659 114.492 43.9688C114.368 43.5651 114.307 43.1419 114.307 42.6992C114.307 41.9961 114.404 41.3581 114.6 40.7852C114.788 40.2057 115.042 39.7109 115.361 39.3008C115.687 38.8906 116.055 38.5716 116.465 38.3438C116.875 38.1159 117.301 38.002 117.744 38.002C118.193 38.002 118.535 38.1159 118.77 38.3438C119.01 38.5716 119.131 38.8581 119.131 39.2031C119.131 39.5352 119.036 39.8477 118.848 40.1406C118.659 40.4271 118.402 40.7103 118.076 40.9902C117.757 41.2637 117.386 41.5371 116.963 41.8105C116.54 42.0775 116.094 42.3542 115.625 42.6406C115.671 42.9792 115.749 43.2884 115.859 43.5684C115.97 43.8418 116.11 44.0794 116.279 44.2812C116.449 44.4766 116.644 44.6296 116.865 44.7402C117.087 44.8444 117.334 44.8965 117.607 44.8965ZM117.91 39.4961C117.91 39.2357 117.839 39.0306 117.695 38.8809C117.559 38.7311 117.389 38.6562 117.188 38.6562C117.018 38.6562 116.839 38.7181 116.65 38.8418C116.462 38.959 116.289 39.151 116.133 39.418C115.977 39.6784 115.846 40.0137 115.742 40.4238C115.638 40.834 115.586 41.332 115.586 41.918V42.1426C115.807 42.0254 116.051 41.8724 116.318 41.6836C116.592 41.4883 116.846 41.2734 117.08 41.0391C117.314 40.8047 117.51 40.5573 117.666 40.2969C117.829 40.0299 117.91 39.763 117.91 39.4961Z" fill="#68452C"/>
</g>
<path d="M25 250H153V260H25V250Z" fill="#454545"/>
<defs>
<filter id="filter0_d" x="45.9393" y="69.5" width="35.5111" height="189.012" filterUnits="userSpaceOnUse" color-interpolation-filters="sRGB">
<feFlood flood-opacity="0" result="BackgroundImageFix"/>
<feColorMatrix in="SourceAlpha" type="matrix" values="0 0 0 0 0 0 0 0 0 0 0 0 0 0 0 0 0 0 127 0"/>
<feOffset dy="4"/>
<feGaussianBlur stdDeviation="2"/>
<feColorMatrix type="matrix" values="0 0 0 0 0.215686 0 0 0 0 0 0 0 0 0 0.831373 0 0 0 0.25 0"/>
<feBlend mode="normal" in2="BackgroundImageFix" result="effect1_dropShadow"/>
<feBlend mode="normal" in="SourceGraphic" in2="effect1_dropShadow" result="shape"/>
</filter>
<filter id="filter1_d" x="96" y="70" width="35.1576" height="188.512" filterUnits="userSpaceOnUse" color-interpolation-filters="sRGB">
<feFlood flood-opacity="0" result="BackgroundImageFix"/>
<feColorMatrix in="SourceAlpha" type="matrix" values="0 0 0 0 0 0 0 0 0 0 0 0 0 0 0 0 0 0 127 0"/>
<feOffset dy="4"/>
<feGaussianBlur stdDeviation="2"/>
<feColorMatrix type="matrix" values="0 0 0 0 0 0 0 0 0 0 0 0 0 0 0 0 0 0 0.25 0"/>
<feBlend mode="normal" in2="BackgroundImageFix" result="effect1_dropShadow"/>
<feBlend mode="normal" in="SourceGraphic" in2="effect1_dropShadow" result="shape"/>
</filter>
<filter id="filter2_d" x="44.7064" y="191.91" width="12.0306" height="66.2534" filterUnits="userSpaceOnUse" color-interpolation-filters="sRGB">
<feFlood flood-opacity="0" result="BackgroundImageFix"/>
<feColorMatrix in="SourceAlpha" type="matrix" values="0 0 0 0 0 0 0 0 0 0 0 0 0 0 0 0 0 0 127 0"/>
<feOffset dy="4"/>
<feGaussianBlur stdDeviation="2"/>
<feColorMatrix type="matrix" values="0 0 0 0 0 0 0 0 0 0 0 0 0 0 0 0 0 0 0.25 0"/>
<feBlend mode="normal" in2="BackgroundImageFix" result="effect1_dropShadow"/>
<feBlend mode="normal" in="SourceGraphic" in2="effect1_dropShadow" result="shape"/>
</filter>
<filter id="filter3_d" x="120" y="191.91" width="12.0306" height="66.2534" filterUnits="userSpaceOnUse" color-interpolation-filters="sRGB">
<feFlood flood-opacity="0" result="BackgroundImageFix"/>
<feColorMatrix in="SourceAlpha" type="matrix" values="0 0 0 0 0 0 0 0 0 0 0 0 0 0 0 0 0 0 127 0"/>
<feOffset dy="4"/>
<feGaussianBlur stdDeviation="2"/>
<feColorMatrix type="matrix" values="0 0 0 0 0 0 0 0 0 0 0 0 0 0 0 0 0 0 0.25 0"/>
<feBlend mode="normal" in2="BackgroundImageFix" result="effect1_dropShadow"/>
<feBlend mode="normal" in="SourceGraphic" in2="effect1_dropShadow" result="shape"/>
</filter>
<filter id="filter4_d" x="53.1582" y="27.6035" width="69.9258" height="20.8945" filterUnits="userSpaceOnUse" color-interpolation-filters="sRGB">
<feFlood flood-opacity="0" result="BackgroundImageFix"/>
<feColorMatrix in="SourceAlpha" type="matrix" values="0 0 0 0 0 0 0 0 0 0 0 0 0 0 0 0 0 0 127 0"/>
<feOffset/>
<feGaussianBlur stdDeviation="1"/>
<feColorMatrix type="matrix" values="0 0 0 0 0 0 0 0 0 0 0 0 0 0 0 0 0 0 0.25 0"/>
<feBlend mode="normal" in2="BackgroundImageFix" result="effect1_dropShadow"/>
<feBlend mode="normal" in="SourceGraphic" in2="effect1_dropShadow" result="shape"/>
</filter>
</defs>
</svg>
