<svg width="1440" height="207" viewBox="0 0 1440 207" fill="none" xmlns="http://www.w3.org/2000/svg">
<path fill-rule="evenodd" clip-rule="evenodd" d="M1440 160.704L1400 137.823C1360 114.941 1280 69.1774 1200 72.9023C1120 76.6273 1040 130.373 960 149.53C880 168.686 800 153.255 720 134.098C640 114.941 560 92.0591 480 69.1774C400 45.7635 320 22.8818 240 45.7635C160 69.1774 80 137.823 40 172.411L0 207V1.44839e-05L40 1.44839e-05C80 1.44839e-05 160 1.44839e-05 240 1.44839e-05C320 1.44839e-05 400 1.44839e-05 480 1.44839e-05C560 1.44839e-05 640 1.44839e-05 720 1.44839e-05C800 1.44839e-05 880 1.44839e-05 960 1.44839e-05C1040 1.44839e-05 1120 1.44839e-05 1200 1.44839e-05C1280 1.44839e-05 1360 1.44839e-05 1400 1.44839e-05H1440V160.704Z" fill="#0099FF" fill-opacity="0.5"/>
<path fill-rule="evenodd" clip-rule="evenodd" d="M1440 114.941L1380 103.234C1320 92.0591 1200 69.1773 1080 84.0771C960 99.509 840 153.254 720 156.979C600 160.704 480 114.941 360 103.234C240 92.0591 120 114.941 60 126.648L-3.18254e-06 137.823L-2.5825e-05 1.81303e-05L60 1.5339e-05C120 1.25478e-05 240 6.96533e-06 360 1.38286e-06C480 -4.19961e-06 600 -9.78208e-06 720 -1.53646e-05C840 -2.0947e-05 960 -2.65295e-05 1080 -3.2112e-05C1200 -3.76944e-05 1320 -4.32769e-05 1380 -4.60682e-05L1440 -4.88594e-05L1440 114.941Z" fill="#0099FF" fill-opacity="0.5"/>
</svg>
